<svg width="35" height="35" viewBox="0 0 35 35" fill="none" xmlns="http://www.w3.org/2000/svg">
<g id="mingcute:chat-1-line" clip-path="url(#clip0_142_550)">
<g id="Group">
<path id="Vector" d="M17.5001 2.91666C25.5545 2.91666 32.0834 9.44562 32.0834 17.5C32.0834 25.5544 25.5545 32.0833 17.5001 32.0833H5.83342C5.05987 32.0833 4.318 31.776 3.77102 31.2291C3.22404 30.6821 2.91675 29.9402 2.91675 29.1667V17.5C2.91675 9.44562 9.44571 2.91666 17.5001 2.91666ZM17.5001 5.83332C14.4059 5.83332 11.4384 7.06249 9.2505 9.25041C7.06258 11.4383 5.83342 14.4058 5.83342 17.5V29.1667H17.5001C20.5943 29.1667 23.5617 27.9375 25.7497 25.7496C27.9376 23.5616 29.1667 20.5942 29.1668 17.5C29.1667 14.4058 27.9376 11.4383 25.7497 9.25041C23.5617 7.06249 20.5943 5.83332 17.5001 5.83332ZM17.5001 20.4167C17.8718 20.4171 18.2293 20.5594 18.4996 20.8146C18.7699 21.0697 18.9325 21.4185 18.9543 21.7895C18.9761 22.1606 18.8554 22.526 18.6168 22.811C18.3782 23.096 18.0398 23.2792 17.6707 23.3231L17.5001 23.3333H13.1251C12.7534 23.3329 12.3959 23.1906 12.1256 22.9354C11.8553 22.6803 11.6927 22.3315 11.6709 21.9605C11.6491 21.5894 11.7698 21.224 12.0084 20.939C12.247 20.6539 12.5854 20.4708 12.9545 20.4269L13.1251 20.4167H17.5001ZM21.8751 14.5833C22.2619 14.5833 22.6328 14.737 22.9063 15.0105C23.1798 15.284 23.3334 15.6549 23.3334 16.0417C23.3334 16.4284 23.1798 16.7994 22.9063 17.0729C22.6328 17.3463 22.2619 17.5 21.8751 17.5H13.1251C12.7383 17.5 12.3674 17.3463 12.0939 17.0729C11.8204 16.7994 11.6667 16.4284 11.6667 16.0417C11.6667 15.6549 11.8204 15.284 12.0939 15.0105C12.3674 14.737 12.7383 14.5833 13.1251 14.5833H21.8751Z" fill="white"/>
</g>
</g>
<defs>
<clipPath id="clip0_142_550">
<rect width="35" height="35" fill="white"/>
</clipPath>
</defs>
</svg>
