<svg width="35" height="35" viewBox="0 0 35 35" fill="none" xmlns="http://www.w3.org/2000/svg">
<g id="fluent:call-12-regular">
<path id="Vector" d="M16.2195 7.44042C16.0038 6.85303 15.5714 6.37046 15.0112 6.0917C14.4509 5.81293 13.8053 5.75911 13.2066 5.94125C10.3687 6.81625 8.38535 9.25167 8.81118 12.0692C9.28742 15.1962 10.3471 18.206 11.9349 20.9417C13.5058 23.6711 15.5652 26.0884 18.0103 28.0729C20.2095 29.8521 23.2953 29.3621 25.4712 27.3204C25.9289 26.8909 26.2066 26.3037 26.2482 25.6774C26.2899 25.0511 26.0925 24.4323 25.6958 23.9458L24.1383 22.0413C23.8263 21.6583 23.4065 21.3779 22.9332 21.2364C22.4599 21.0949 21.9551 21.099 21.4841 21.2479L17.8908 22.3854L17.2637 21.7379C16.4736 20.9185 15.7824 20.009 15.2045 19.0283C14.6436 18.0366 14.2067 16.9796 13.9037 15.8813L13.6616 15.0208L16.4324 12.4688C16.7981 12.1293 17.0545 11.6888 17.1693 11.2032C17.2841 10.7176 17.252 10.2089 17.077 9.74167L16.2224 7.44334L16.2195 7.44042ZM12.3491 3.15292C13.6591 2.75211 15.0728 2.86747 16.3006 3.47536C17.5283 4.08325 18.477 5.13766 18.9524 6.4225L19.807 8.72084C20.184 9.73057 20.2522 10.8296 20.0029 11.8782C19.7536 12.9268 19.1981 13.8776 18.407 14.6096L16.9778 15.925C17.1616 16.4325 17.4095 17.0129 17.7303 17.5758C18.0512 18.13 18.4245 18.6346 18.7658 19.0458L20.6033 18.4625C21.6306 18.1382 22.7315 18.1296 23.7637 18.438C24.7959 18.7463 25.7118 19.3574 26.3928 20.1921L27.9503 22.0967C28.8159 23.1551 29.2474 24.5028 29.1575 25.8671C29.0676 27.2315 28.4631 28.5109 27.4662 29.4467C24.567 32.1679 19.8333 33.2967 16.1787 30.3392C13.4555 28.13 11.1618 25.4388 9.41201 22.4C7.64058 19.3487 6.45826 15.9917 5.9266 12.5038C5.2266 7.85751 8.56035 4.31959 12.3491 3.15584V3.15292Z" fill="white"/>
</g>
</svg>
