<svg width="17" height="10" viewBox="0 0 17 10" fill="none" xmlns="http://www.w3.org/2000/svg">
<path id="Vector" d="M14.5658 0.641667L8.25 6.9575L3.12583 1.83333H6.41667C6.92083 1.83333 7.33333 1.42083 7.33333 0.916667C7.33333 0.4125 6.92083 0 6.41667 0H0.916667C0.4125 0 0 0.4125 0 0.916667V6.41667C0 6.92083 0.4125 7.33333 0.916667 7.33333C1.42083 7.33333 1.83333 6.92083 1.83333 6.41667V3.12583L7.59917 8.89167C7.95667 9.24917 8.53417 9.24917 8.89167 8.89167L15.8492 1.93417C15.9341 1.84936 16.0016 1.74863 16.0476 1.63774C16.0936 1.52685 16.1172 1.40797 16.1172 1.28792C16.1172 1.16786 16.0936 1.04899 16.0476 0.938094C16.0016 0.827202 15.9341 0.726471 15.8492 0.641667C15.5008 0.293333 14.9142 0.293333 14.5658 0.641667Z" fill="#FF0000"/>
</svg>
