<svg width="12" height="12" viewBox="0 0 12 12" fill="none" xmlns="http://www.w3.org/2000/svg">
<path id="Vector" d="M10.3533 2.79932L1.37907 11.7736C1.22813 11.9245 1.03602 12 0.802744 12C0.569468 12 0.377358 11.9245 0.226415 11.7736C0.0754714 11.6226 0 11.4305 0 11.1973C0 10.964 0.0754714 10.7719 0.226415 10.6209L9.20068 1.64666L4.59005 1.64666C4.35677 1.64666 4.1611 1.56762 4.00302 1.40954C3.84494 1.25146 3.76617 1.05606 3.76672 0.82333C3.76672 0.590054 3.84576 0.394377 4.00384 0.236298C4.16192 0.0782191 4.35732 -0.000546036 4.59005 2.84888e-06L11.1767 2.84888e-06C11.4099 2.84888e-06 11.6056 0.0790424 11.7637 0.237121C11.9218 0.3952 12.0005 0.590603 12 0.82333L12 7.40995C12 7.64323 11.921 7.8389 11.7629 7.99698C11.6048 8.15506 11.4094 8.23383 11.1767 8.23328C10.9434 8.23328 10.7477 8.15424 10.5896 7.99616C10.4316 7.83808 10.3528 7.64268 10.3533 7.40995L10.3533 2.79932Z" fill="#00FF29"/>
</svg>
