<svg width="17" height="17" viewBox="0 0 17 17" fill="none" xmlns="http://www.w3.org/2000/svg">
<path d="M8.00008 5.00001C6.93922 5.00001 5.9218 5.42144 5.17166 6.17158C4.42151 6.92173 4.00008 7.93914 4.00008 9.00001C4.00008 10.0609 4.42151 11.0783 5.17166 11.8284C5.9218 12.5786 6.93922 13 8.00008 13C9.06095 13 10.0784 12.5786 10.8285 11.8284C11.5787 11.0783 12.0001 10.0609 12.0001 9.00001C12.0001 7.93914 11.5787 6.92173 10.8285 6.17158C10.0784 5.42144 9.06095 5.00001 8.00008 5.00001ZM2.34408 3.34401C3.08206 2.57993 3.96481 1.97047 4.94085 1.5512C5.91688 1.13193 6.96664 0.911235 8.02887 0.902005C9.09111 0.892774 10.1445 1.09519 11.1277 1.49744C12.1109 1.89968 13.0041 2.49371 13.7552 3.24485C14.5064 3.99599 15.1004 4.88921 15.5027 5.87238C15.9049 6.85555 16.1073 7.90898 16.0981 8.97122C16.0889 10.0335 15.8682 11.0832 15.4489 12.0592C15.0296 13.0353 14.4202 13.918 13.6561 14.656C12.1473 16.1133 10.1264 16.9196 8.02887 16.9014C5.9313 16.8832 3.9248 16.0418 2.44153 14.5586C0.95827 13.0753 0.116918 11.0688 0.0986911 8.97122C0.0804637 6.87364 0.886818 4.85283 2.34408 3.34401Z" fill="#A5B1D9"/>
</svg>
